<?xml version="1.0" encoding="UTF-8"?>
<svg id="Layer_1" data-name="Layer 1" xmlns="http://www.w3.org/2000/svg" viewBox="0 0 286.69 183.63">
  <defs>
    <style>
      .cls-1 {
        fill: #66939d;
      }

      .cls-1, .cls-2, .cls-3 {
        stroke-width: 0px;
      }

      .cls-2 {
        fill: #f27b7d;
      }

      .cls-3 {
        fill: #fff;
      }
    </style>
  </defs>
  <path class="cls-1" d="M263.07,110.54h-22.34c-10.31,0-18.69,8.38-18.69,18.69,0,2.01,1.63,3.65,3.65,3.65s3.65-1.63,3.65-3.65c0-6.28,5.11-11.4,11.39-11.4h22.34c9,0,16.32,7.32,16.32,16.32s-7.32,16.32-16.32,16.32h-55.51v-10.16c0-.15,0-.31-.01-.45-.13-5.65-2.98-10.65-7.29-13.74-3.28-2.35-7.39-3.61-11.81-3.2-8.13.75-14.8,7.28-15.7,15.4-1.17,10.53,7.07,19.46,17.35,19.46h10.06v8.38c0,.19,0,.36-.01.53-.23,4.52-3.44,8.26-7.68,9.32-.29.07-.59.14-.89.18-.06.01-.13.02-.19.03-.42.05-.86.09-1.29.09-3.12,0-5.9-1.39-7.76-3.61-.14-.17-.31-.32-.47-.46-.56-.76-1.03-1.58-1.37-2.49-.54-1.44-1.84-2.45-3.38-2.45h-.19c-2.47,0-4.18,2.46-3.34,4.79,2.43,6.76,8.88,11.52,16.42,11.52.82,0,1.63-.08,2.42-.19.27-.04.54-.07.81-.12.18-.03.35-.07.53-.11.42-.09.84-.2,1.25-.32.05-.02.1-.03.16-.05,5.54-1.68,9.92-6.03,11.62-11.56.46-1.47.73-3.01.77-4.62.01-.17.01-.36.01-.53v-8.36h.01s55.51,0,55.51,0c13.02,0,23.62-10.59,23.62-23.62s-10.6-23.62-23.62-23.62ZM180.05,141.88c-.95-6.28,3.93-11.74,10.05-11.74,5.44,0,9.88,4.3,10.16,9.65,0,.02,0,.04,0,.07h0v3.11c-.06.25-.1.5-.1.77v6.74h-9.72c-5.08,0-9.63-3.58-10.39-8.6Z"/>
  <path class="cls-1" d="M113.63,146.25c.9,6.19-3.9,11.52-9.93,11.52H24.24C11.16,157.77-.09,147.07,0,133.99c.03-4.22,1.17-8.17,3.15-11.58,4.06-7.09,11.72-11.87,20.47-11.87h22.33c7.9,0,14.67,4.92,17.4,11.87.83,2.11,1.29,4.42,1.29,6.82,0,2.25-2.04,4.02-4.38,3.57-1.71-.33-2.9-1.93-2.92-3.67-.02-2.52-.87-4.84-2.27-6.72-2.07-2.78-5.39-4.58-9.12-4.58h-22.33c-4.39,0-8.38,1.74-11.32,4.58-3.08,2.96-5,7.11-5.01,11.7-.03,9.01,7.79,16.37,16.79,16.37h79.48c1.35,0,2.61-.91,2.84-2.24.31-1.73-1.03-3.24-2.7-3.24h-5.89c-8.98,0-16.32-7.34-16.32-16.32v-1.8c0-1.55.22-3.05.63-4.47,2.32-8.16,10.89-13.72,20.17-11.2,1.4.39,2.75.98,3.99,1.75,2.64,1.67,4.67,3.91,5.99,6.5.15.3.39.96.63,1.76.73,2.39-1.04,4.81-3.54,4.81h0c-1.45,0-2.77-.84-3.37-2.16s-1.39-2.71-1.7-3.05c-.43-.47-.82-.87-.94-.97-1.57-1.26-3.52-1.94-5.57-1.94-3.33,0-6.24,1.82-7.79,4.52-.76,1.32-1.19,2.84-1.19,4.47v1.8c0,4.98,4.04,9.02,9.02,9.02h5.53c5.04,0,9.57,3.56,10.29,8.55Z"/>
  <rect class="cls-1" x="152.9" y="110.54" width="7.29" height="56.8" rx="3.65" ry="3.65"/>
  <path class="cls-1" d="M140.46,126.51c0-2.01-1.63-3.65-3.65-3.65s-3.65,1.63-3.65,3.65v39.64c0,.19,0,.36-.01.53-.08,1.67-.58,3.25-1.39,4.62-1.76,3.01-5.04,5.03-8.77,5.03-.14,0-.28-.02-.41-.02-.31-.02-.62-.03-.92-.07-.1-.01-.2-.03-.3-.05-3.56-.62-6.5-3.08-7.74-6.41-.54-1.44-1.84-2.45-3.38-2.45h-.19c-2.47,0-4.18,2.46-3.34,4.79.56,1.57,1.35,3.02,2.31,4.34.14.3.31.6.54.88,2.51,3.01,6.02,5.14,10,5.93.41.08.82.16,1.24.21.12.01.24.03.35.04.65.07,1.3.12,1.97.12,9.47,0,17.17-7.55,17.45-16.94.01-.17-.12-40.19-.12-40.19Z"/>
  <path class="cls-1" d="M136.82,110.54c-2.74,0-4.96,2.22-4.96,4.96h0c0,2.74,2.22,4.96,4.96,4.96s4.96-2.22,4.96-4.96h0c0-2.74-2.22-4.96-4.96-4.96Z"/>
  <circle class="cls-1" cx="254.35" cy="165.13" r="4.96"/>
  <g>
    <circle class="cls-1" cx="62.93" cy="165.13" r="4.96"/>
    <path class="cls-1" d="M51.12,160.16c-2.74,0-4.96,2.22-4.96,4.96s2.22,4.96,4.96,4.96,4.96-2.22,4.96-4.96-2.22-4.96-4.96-4.96Z"/>
  </g>
  <g>
    <path class="cls-2" d="M143.28,0c-27.26,0-49.37,22.11-49.37,49.37s22.11,49.37,49.37,49.37,49.37-22.11,49.37-49.37S170.54,0,143.28,0Z"/>
    <g>
      <circle class="cls-3" cx="143.27" cy="54.52" r="4.96"/>
      <path class="cls-3" d="M120.89,23.95c-2.02,0-3.66-1.64-3.66-3.66s1.64-3.66,3.65-3.66h46.14c2.01,0,3.65,1.64,3.65,3.66s-1.64,3.66-3.66,3.66h-46.12Z"/>
      <path class="cls-3" d="M143.31,82.11c-4.29,0-8.58-.98-12.76-2.91-5-2.29-9.13-6.32-11.63-11.33-4.55-9.26-4.27-19.32.77-27.6,4.96-8.15,13.58-13.13,23.06-13.33h24.27c2.01,0,3.65,1.64,3.65,3.66s-1.64,3.66-3.65,3.66h-23.03l-1.08.02-.73.03c-6.04.26-11.79,3.51-15.3,8.4-2.48,3.46-3.84,7.68-3.85,11.94-.02,5.66,2.36,11.31,6.61,15.09.05.05.11.09.16.14,3.71,3.22,8.59,4.91,13.49,4.91,11.17,0,20.25-9.08,20.25-20.25v-.78h-6.96c-2.01,0-3.66-1.64-3.67-3.65,0-.98.38-1.91,1.07-2.6s1.62-1.08,2.6-1.08h11.53c1.5,0,2.73,1.22,2.73,2.73v5.39c0,15.21-12.36,27.58-27.55,27.58Z"/>
    </g>
  </g>
</svg>